<svg xmlns="http://www.w3.org/2000/svg" width="326" height="57"><path data-name="パス 5" d="M48.484 42.907L57.225 0h9.8L53.91 57h-9.447L33.65 15.385 22.603 57h-9.486L0 0h9.8l8.825 42.828L29.473 0h8.276zm58.985-11.353H84.125v17.538h27.287V57H74.249V0h36.89v7.986H84.125v15.738h23.344zM119.454 57V0h19.48q9.642 0 14.678 3.876t5.036 11.549a12.334 12.334 0 01-2.108 7.047 13.575 13.575 0 01-6.168 4.854 12.543 12.543 0 017.124 4.717 13.767 13.767 0 012.518 8.319q0 8.025-5.133 12.332T140.183 57zm9.876-25.72v17.812h10.969a10.6 10.6 0 007.261-2.31 8.119 8.119 0 002.615-6.42q0-8.887-9.057-9.082zm0-7.282h9.681a11.174 11.174 0 007.2-2.094 7.185 7.185 0 002.6-5.931q0-4.228-2.4-6.107t-7.476-1.879h-9.6zm85.14 18.909L223.214 0h9.8l-13.117 57h-9.447l-10.814-41.615L188.589 57h-9.486L165.986 0h9.8l8.822 42.828L195.46 0h8.276zm58.985-11.353h-23.343v17.538h27.287V57h-37.164V0h36.89v7.986h-27.013v15.738h23.344zM285.44 57V0h19.48q9.642 0 14.678 3.876t5.036 11.549a12.334 12.334 0 01-2.109 7.05 13.575 13.575 0 01-6.168 4.854 12.543 12.543 0 017.124 4.717 13.766 13.766 0 012.518 8.319q0 8.025-5.133 12.332T306.169 57zm9.876-25.72v17.812h10.969a10.6 10.6 0 007.261-2.31 8.119 8.119 0 002.616-6.42q0-8.887-9.057-9.082zm0-7.282h9.681a11.174 11.174 0 007.2-2.094 7.185 7.185 0 002.6-5.931q0-4.228-2.4-6.107t-7.476-1.879h-9.6z" fill="#333"/></svg>